# xmcd
#
# Track frame offsets:
# 150
# 17000
# 38237
# 57070
# 73420
# 94250
# 113195
# 137192
# 156655
# 178562
# 202665
# 222395
# 238112
# 262192
#
# Disc length: 4440 seconds
#
#
# Revision: 1
# Processed by: cddbd v1.5.1PL2 Copyright (c) Steve Scherf et al.
# Submitted via: FreeRIP 2.945 
#
DISCID=d411560e
DTITLE=Keith Urban - Be Here
DYEAR=2004
DGENRE=Country
TTITLE0=Days Go By
TTITLE1=Better Life
TTITLE2=Making Memories Of Us
TTITLE3=God's Been Good To Me
TTITLE4=The Hard Way
TTITLE5=You're My Better Half
TTITLE6=I Could Fly
TTITLE7=Tonight I Wanna Cry
TTITLE8=She's Gotta Be
TTITLE9=Nobody Drinks Alone
TTITLE10=Country Comfort
TTITLE11=Live To Love Another Day
TTITLE12=These Are The Days
TTITLE13=Data Track
EXTD=
EXTT0=
EXTT1=
EXTT2=
EXTT3=
EXTT4=
EXTT5=
EXTT6=
EXTT7=
EXTT8=
EXTT9=
EXTT10=
EXTT11=
EXTT12=
EXTT13=
PLAYORDER=
